<svg width="170" height="170" viewBox="0 0 170 170" fill="none" xmlns="http://www.w3.org/2000/svg">
<g filter="url(#filter0_d_27_406)">
<circle cx="85" cy="81" r="81" fill="#D9D9D9"/>
</g>
<g filter="url(#filter1_ddd_27_406)">
<path d="M22.1103 62.3018L29.5445 75.8942L37.0896 62.3018H45.356L33.1506 82.8291V97.2537H25.55V82.8291L13.5665 62.3018H22.1103Z" fill="#272A31"/>
</g>
<g filter="url(#filter2_ddd_27_406)">
<path d="M68.799 62.3018V68.2936H58.9237V97.2537H51.3231V68.2936H41.6697V62.3018H68.799ZM92.8904 85.9359H75.3035V86.1578C75.3035 88.266 76.0432 89.838 77.5226 90.8736C79.0021 91.9092 80.9069 92.427 83.237 92.427C84.7164 92.427 86.011 92.279 87.1205 91.9831C88.2671 91.6873 89.3027 91.3359 90.2274 90.929L91.5589 96.0886C90.5602 96.5694 89.3027 96.9763 87.7863 97.3091C86.2699 97.679 84.476 97.8639 82.4048 97.8639C80.4076 97.8639 78.5213 97.605 76.7459 97.0872C75.0076 96.5324 73.4727 95.7002 72.1412 94.5907C70.8467 93.4811 69.8111 92.0756 69.0343 90.3743C68.2576 88.6729 67.8693 86.6387 67.8693 84.2716C67.8693 82.1633 68.1837 80.2586 68.8124 78.5572C69.4412 76.8189 70.3289 75.3394 71.4754 74.1189C72.659 72.8983 74.0645 71.9552 75.6918 71.2894C77.3192 70.5867 79.1315 70.2353 81.1288 70.2353C84.7164 70.2353 87.5644 71.3264 89.6726 73.5086C91.8178 75.6908 92.8904 78.7421 92.8904 82.6627V85.9359ZM85.3452 80.8873C85.3452 80.1846 85.2527 79.5004 85.0678 78.8346C84.9199 78.1689 84.661 77.5956 84.2911 77.1148C83.9212 76.5969 83.4589 76.1901 82.9041 75.8942C82.3493 75.5983 81.6651 75.4504 80.8514 75.4504C79.372 75.4504 78.1514 75.9497 77.1898 76.9483C76.2281 77.9469 75.6549 79.2969 75.4699 80.9983L85.3452 80.8873ZM111.95 92.427C113.134 92.427 114.17 92.279 115.057 91.9831C115.982 91.6503 116.74 91.3359 117.332 91.04L118.719 96.1441C117.979 96.5509 116.907 96.9393 115.501 97.3091C114.096 97.679 112.561 97.8639 110.896 97.8639C108.899 97.8639 107.031 97.568 105.293 96.9763C103.555 96.3845 102.038 95.5153 100.744 94.3687C99.4862 93.1852 98.4875 91.7427 97.7478 90.0414C97.0081 88.34 96.6382 86.3613 96.6382 84.1051C96.6382 82.0339 96.9896 80.1476 97.6923 78.4462C98.3951 76.7449 99.3752 75.2839 100.633 74.0634C101.89 72.8429 103.407 71.8997 105.182 71.234C106.957 70.5682 108.899 70.2353 111.007 70.2353C112.154 70.2353 113.356 70.3463 114.613 70.5682C115.908 70.7901 117.258 71.271 118.663 72.0107L117.11 77.1148C116.333 76.6709 115.483 76.3195 114.558 76.0606C113.67 75.7648 112.764 75.6168 111.84 75.6168C109.546 75.6168 107.679 76.3196 106.236 77.725C104.831 79.1305 104.128 81.1832 104.128 83.8832C104.128 85.4736 104.35 86.8236 104.794 87.9332C105.274 89.0058 105.885 89.8749 106.624 90.5407C107.364 91.2064 108.196 91.6873 109.121 91.9831C110.046 92.279 110.989 92.427 111.95 92.427ZM131.143 97.2537H123.764V57.6416H131.143V73.1757C132.215 72.3251 133.436 71.6223 134.804 71.0675C136.21 70.5127 137.726 70.2353 139.354 70.2353C140.907 70.2353 142.257 70.4758 143.404 70.9566C144.587 71.4004 145.549 72.0477 146.289 72.8983C147.065 73.712 147.639 74.7107 148.008 75.8942C148.378 77.0408 148.563 78.2983 148.563 79.6668V97.2537H141.184V80.9428C141.184 79.1305 140.815 77.836 140.075 77.0593C139.335 76.2826 138.263 75.8942 136.857 75.8942C135.895 75.8942 134.897 76.1346 133.861 76.6154C132.863 77.0593 131.956 77.6695 131.143 78.4462V97.2537Z" fill="#272A31"/>
</g>
<g filter="url(#filter3_ddd_27_406)">
<rect x="125.258" y="48.2776" width="7.01194" height="7.01194" fill="#EC5242"/>
</g>
<g filter="url(#filter4_ddd_27_406)">
<path d="M34.2495 72.9341C34.5224 73.207 34.6588 73.504 34.6588 73.825C34.6588 74.1381 34.6107 74.3989 34.5144 74.6076C34.4261 74.8163 34.2976 75.0009 34.1291 75.1615C33.7759 75.5066 33.3545 75.6792 32.8649 75.6792C32.3753 75.6792 31.982 75.5507 31.685 75.2939C31.3961 75.029 31.2516 74.6999 31.2516 74.3066C31.2516 73.9133 31.3278 73.5361 31.4803 73.1749C31.6409 72.8057 31.8496 72.4525 32.1064 72.1154C32.3633 71.7783 32.6482 71.4653 32.9612 71.1763C33.2823 70.8793 33.6074 70.6185 33.9364 70.3937C34.6267 69.9282 35.1846 69.6954 35.61 69.6954C35.7705 69.6954 35.919 69.7636 36.0554 69.9001C36.1999 70.0285 36.2802 70.1168 36.2962 70.165C35.5899 70.8713 35.0802 71.4653 34.7672 71.9468C34.4542 72.4284 34.2816 72.7575 34.2495 72.9341ZM39.5108 86.9604C39.5108 87.2815 39.242 87.442 38.7042 87.442C37.3718 87.442 36.4247 86.9122 35.8628 85.8527C35.6541 85.4755 35.5498 85.026 35.5498 84.5043C35.5498 83.9826 35.626 83.4649 35.7785 82.9512C35.931 82.4294 36.1357 81.9157 36.3926 81.4101C36.6494 80.9044 36.9464 80.4148 37.2835 79.9412C37.6206 79.4677 37.9778 79.0302 38.355 78.6289C39.1497 77.7781 39.9041 77.1801 40.6185 76.835C40.8111 76.7467 40.9837 76.7025 41.1362 76.7025C41.2967 76.7025 41.4292 76.7066 41.5335 76.7146C41.7984 76.7387 41.995 76.839 42.1235 77.0156C41.6339 78.051 41.2325 78.9981 40.9195 79.857C42.3482 78.4523 44.0097 77.4932 45.9039 76.9795C46.522 76.8109 47.0598 76.7266 47.5173 76.7266C47.9828 76.7266 48.2517 76.8149 48.3239 76.9915C48.3962 77.1601 48.4323 77.3166 48.4323 77.461C48.4323 77.6055 48.4122 77.8022 48.3721 78.051C48.332 78.2918 48.2276 78.6289 48.0591 79.0623C47.8905 79.4958 47.7179 79.9332 47.5413 80.3747C47.0919 81.4984 46.8671 82.2649 46.8671 82.6743C46.8671 83.3806 47.12 83.7337 47.6256 83.7337C48.4925 83.7337 49.4476 83.1639 50.4911 82.0241C50.7961 81.695 51.073 81.3419 51.3218 80.9646C51.683 80.9405 51.8636 81.089 51.8636 81.4101C51.8636 81.6669 51.6991 82.0923 51.37 82.6863C51.0409 83.2722 50.7239 83.7819 50.4188 84.2153C50.1219 84.6407 49.7848 85.0581 49.4075 85.4675C49.0303 85.8768 48.6169 86.246 48.1674 86.5751C47.1882 87.2895 46.233 87.6467 45.302 87.6467C44.3709 87.6467 43.6646 87.4019 43.183 86.9122C42.7014 86.4226 42.4606 85.7083 42.4606 84.7692C42.4606 83.3806 43.183 81.7191 44.6277 79.7847C45.0692 79.1988 45.2618 78.9058 45.2056 78.9058C44.5956 78.9058 43.7368 79.2911 42.6291 80.0616C41.5295 80.8322 40.6907 81.6509 40.1128 82.5177C39.7436 84.0187 39.543 85.4996 39.5108 86.9604ZM56.4628 72.4405C56.1899 72.1676 56.0534 71.8746 56.0534 71.5616C56.0534 71.2405 56.0976 70.9756 56.1859 70.767C56.2822 70.5583 56.4106 70.3737 56.5711 70.2131C56.9323 69.868 57.3577 69.6954 57.8474 69.6954C58.337 69.6954 58.7263 69.8279 59.0152 70.0927C59.3122 70.3496 59.4607 70.6747 59.4607 71.0679C59.4607 71.4612 59.3804 71.8425 59.2199 72.2117C59.0674 72.5729 58.8627 72.9221 58.6059 73.2592C58.349 73.5963 58.0601 73.9133 57.739 74.2103C57.426 74.4993 57.1089 74.7521 56.7879 74.9688C56.0896 75.4424 55.5277 75.6792 55.1023 75.6792C54.9257 75.6792 54.7692 75.615 54.6328 75.4865C54.5043 75.3501 54.4321 75.2578 54.416 75.2096C55.1384 74.4872 55.6481 73.8893 55.9451 73.4157C56.2501 72.9421 56.4227 72.6171 56.4628 72.4405Z" fill="#EC5242"/>
</g>
<defs>
<filter id="filter0_d_27_406" x="0" y="0" width="170" height="170" filterUnits="userSpaceOnUse" color-interpolation-filters="sRGB">
<feFlood flood-opacity="0" result="BackgroundImageFix"/>
<feColorMatrix in="SourceAlpha" type="matrix" values="0 0 0 0 0 0 0 0 0 0 0 0 0 0 0 0 0 0 127 0" result="hardAlpha"/>
<feOffset dy="4"/>
<feGaussianBlur stdDeviation="2"/>
<feComposite in2="hardAlpha" operator="out"/>
<feColorMatrix type="matrix" values="0 0 0 0 0 0 0 0 0 0 0 0 0 0 0 0 0 0 0.25 0"/>
<feBlend mode="normal" in2="BackgroundImageFix" result="effect1_dropShadow_27_406"/>
<feBlend mode="normal" in="SourceGraphic" in2="effect1_dropShadow_27_406" result="shape"/>
</filter>
<filter id="filter1_ddd_27_406" x="9.56653" y="62.3018" width="39.7895" height="42.9518" filterUnits="userSpaceOnUse" color-interpolation-filters="sRGB">
<feFlood flood-opacity="0" result="BackgroundImageFix"/>
<feColorMatrix in="SourceAlpha" type="matrix" values="0 0 0 0 0 0 0 0 0 0 0 0 0 0 0 0 0 0 127 0" result="hardAlpha"/>
<feOffset dy="4"/>
<feGaussianBlur stdDeviation="2"/>
<feComposite in2="hardAlpha" operator="out"/>
<feColorMatrix type="matrix" values="0 0 0 0 0 0 0 0 0 0 0 0 0 0 0 0 0 0 0.25 0"/>
<feBlend mode="normal" in2="BackgroundImageFix" result="effect1_dropShadow_27_406"/>
<feColorMatrix in="SourceAlpha" type="matrix" values="0 0 0 0 0 0 0 0 0 0 0 0 0 0 0 0 0 0 127 0" result="hardAlpha"/>
<feOffset dy="4"/>
<feGaussianBlur stdDeviation="2"/>
<feComposite in2="hardAlpha" operator="out"/>
<feColorMatrix type="matrix" values="0 0 0 0 0 0 0 0 0 0 0 0 0 0 0 0 0 0 0.25 0"/>
<feBlend mode="normal" in2="effect1_dropShadow_27_406" result="effect2_dropShadow_27_406"/>
<feColorMatrix in="SourceAlpha" type="matrix" values="0 0 0 0 0 0 0 0 0 0 0 0 0 0 0 0 0 0 127 0" result="hardAlpha"/>
<feOffset dy="4"/>
<feGaussianBlur stdDeviation="2"/>
<feComposite in2="hardAlpha" operator="out"/>
<feColorMatrix type="matrix" values="0 0 0 0 0 0 0 0 0 0 0 0 0 0 0 0 0 0 0.25 0"/>
<feBlend mode="normal" in2="effect2_dropShadow_27_406" result="effect3_dropShadow_27_406"/>
<feBlend mode="normal" in="SourceGraphic" in2="effect3_dropShadow_27_406" result="shape"/>
</filter>
<filter id="filter2_ddd_27_406" x="37.6697" y="57.6416" width="114.893" height="48.2224" filterUnits="userSpaceOnUse" color-interpolation-filters="sRGB">
<feFlood flood-opacity="0" result="BackgroundImageFix"/>
<feColorMatrix in="SourceAlpha" type="matrix" values="0 0 0 0 0 0 0 0 0 0 0 0 0 0 0 0 0 0 127 0" result="hardAlpha"/>
<feOffset dy="4"/>
<feGaussianBlur stdDeviation="2"/>
<feComposite in2="hardAlpha" operator="out"/>
<feColorMatrix type="matrix" values="0 0 0 0 0 0 0 0 0 0 0 0 0 0 0 0 0 0 0.25 0"/>
<feBlend mode="normal" in2="BackgroundImageFix" result="effect1_dropShadow_27_406"/>
<feColorMatrix in="SourceAlpha" type="matrix" values="0 0 0 0 0 0 0 0 0 0 0 0 0 0 0 0 0 0 127 0" result="hardAlpha"/>
<feOffset dy="4"/>
<feGaussianBlur stdDeviation="2"/>
<feComposite in2="hardAlpha" operator="out"/>
<feColorMatrix type="matrix" values="0 0 0 0 0 0 0 0 0 0 0 0 0 0 0 0 0 0 0.25 0"/>
<feBlend mode="normal" in2="effect1_dropShadow_27_406" result="effect2_dropShadow_27_406"/>
<feColorMatrix in="SourceAlpha" type="matrix" values="0 0 0 0 0 0 0 0 0 0 0 0 0 0 0 0 0 0 127 0" result="hardAlpha"/>
<feOffset dy="4"/>
<feGaussianBlur stdDeviation="2"/>
<feComposite in2="hardAlpha" operator="out"/>
<feColorMatrix type="matrix" values="0 0 0 0 0 0 0 0 0 0 0 0 0 0 0 0 0 0 0.25 0"/>
<feBlend mode="normal" in2="effect2_dropShadow_27_406" result="effect3_dropShadow_27_406"/>
<feBlend mode="normal" in="SourceGraphic" in2="effect3_dropShadow_27_406" result="shape"/>
</filter>
<filter id="filter3_ddd_27_406" x="121.258" y="48.2776" width="15.012" height="15.012" filterUnits="userSpaceOnUse" color-interpolation-filters="sRGB">
<feFlood flood-opacity="0" result="BackgroundImageFix"/>
<feColorMatrix in="SourceAlpha" type="matrix" values="0 0 0 0 0 0 0 0 0 0 0 0 0 0 0 0 0 0 127 0" result="hardAlpha"/>
<feOffset dy="4"/>
<feGaussianBlur stdDeviation="2"/>
<feComposite in2="hardAlpha" operator="out"/>
<feColorMatrix type="matrix" values="0 0 0 0 0 0 0 0 0 0 0 0 0 0 0 0 0 0 0.25 0"/>
<feBlend mode="normal" in2="BackgroundImageFix" result="effect1_dropShadow_27_406"/>
<feColorMatrix in="SourceAlpha" type="matrix" values="0 0 0 0 0 0 0 0 0 0 0 0 0 0 0 0 0 0 127 0" result="hardAlpha"/>
<feOffset dy="4"/>
<feGaussianBlur stdDeviation="2"/>
<feComposite in2="hardAlpha" operator="out"/>
<feColorMatrix type="matrix" values="0 0 0 0 0 0 0 0 0 0 0 0 0 0 0 0 0 0 0.25 0"/>
<feBlend mode="normal" in2="effect1_dropShadow_27_406" result="effect2_dropShadow_27_406"/>
<feColorMatrix in="SourceAlpha" type="matrix" values="0 0 0 0 0 0 0 0 0 0 0 0 0 0 0 0 0 0 127 0" result="hardAlpha"/>
<feOffset dy="4"/>
<feGaussianBlur stdDeviation="2"/>
<feComposite in2="hardAlpha" operator="out"/>
<feColorMatrix type="matrix" values="0 0 0 0 0 0 0 0 0 0 0 0 0 0 0 0 0 0 0.25 0"/>
<feBlend mode="normal" in2="effect2_dropShadow_27_406" result="effect3_dropShadow_27_406"/>
<feBlend mode="normal" in="SourceGraphic" in2="effect3_dropShadow_27_406" result="shape"/>
</filter>
<filter id="filter4_ddd_27_406" x="27.2516" y="69.6954" width="36.2091" height="25.9512" filterUnits="userSpaceOnUse" color-interpolation-filters="sRGB">
<feFlood flood-opacity="0" result="BackgroundImageFix"/>
<feColorMatrix in="SourceAlpha" type="matrix" values="0 0 0 0 0 0 0 0 0 0 0 0 0 0 0 0 0 0 127 0" result="hardAlpha"/>
<feOffset dy="4"/>
<feGaussianBlur stdDeviation="2"/>
<feComposite in2="hardAlpha" operator="out"/>
<feColorMatrix type="matrix" values="0 0 0 0 0 0 0 0 0 0 0 0 0 0 0 0 0 0 0.25 0"/>
<feBlend mode="normal" in2="BackgroundImageFix" result="effect1_dropShadow_27_406"/>
<feColorMatrix in="SourceAlpha" type="matrix" values="0 0 0 0 0 0 0 0 0 0 0 0 0 0 0 0 0 0 127 0" result="hardAlpha"/>
<feOffset dy="4"/>
<feGaussianBlur stdDeviation="2"/>
<feComposite in2="hardAlpha" operator="out"/>
<feColorMatrix type="matrix" values="0 0 0 0 0 0 0 0 0 0 0 0 0 0 0 0 0 0 0.25 0"/>
<feBlend mode="normal" in2="effect1_dropShadow_27_406" result="effect2_dropShadow_27_406"/>
<feColorMatrix in="SourceAlpha" type="matrix" values="0 0 0 0 0 0 0 0 0 0 0 0 0 0 0 0 0 0 127 0" result="hardAlpha"/>
<feOffset dy="4"/>
<feGaussianBlur stdDeviation="2"/>
<feComposite in2="hardAlpha" operator="out"/>
<feColorMatrix type="matrix" values="0 0 0 0 0 0 0 0 0 0 0 0 0 0 0 0 0 0 0.25 0"/>
<feBlend mode="normal" in2="effect2_dropShadow_27_406" result="effect3_dropShadow_27_406"/>
<feBlend mode="normal" in="SourceGraphic" in2="effect3_dropShadow_27_406" result="shape"/>
</filter>
</defs>
</svg>
