<svg width="48" height="43" viewBox="0 0 48 43" fill="none" xmlns="http://www.w3.org/2000/svg">
<g filter="url(#filter0_d_4_42)">
<path d="M16.2349 35L20.4969 30.8892L16.1192 28.8987L16.2349 35Z" fill="#D3D3D3"/>
<path d="M43.375 14.1297C43.375 11.4989 41.3597 9.3662 38.8736 9.3662H20.3678C17.8818 9.3662 15.8664 11.4989 15.8664 14.1297V27.891C15.8664 30.5218 17.8818 32.6545 20.3678 32.6545H38.8736C41.3597 32.6545 43.375 30.5218 43.375 27.891V14.1297Z" fill="#D3D3D3"/>
<path d="M17.1844 32.9834L21.0659 29.4331L17.0791 27.7141L17.1844 32.9834Z" fill="#EC5242"/>
<path d="M41.9013 14.959C41.9013 12.687 40.0659 10.8451 37.8018 10.8451H20.9484C18.6843 10.8451 16.8489 12.687 16.8489 14.959V26.8438C16.8489 29.1159 18.6843 30.9577 20.9484 30.9577H37.8018C40.0659 30.9577 41.9013 29.1159 41.9013 26.8438V14.959Z" fill="#EC5242"/>
<path d="M33.8009 25.6338L29.1211 21.523L33.9279 19.5325L33.8009 25.6338Z" fill="#D3D3D3"/>
<path d="M4 4.76352C4 2.1327 6.21293 0 8.94271 0H29.2628C31.9925 0 34.2055 2.1327 34.2055 4.76352V18.5248C34.2055 21.1556 31.9925 23.2883 29.2628 23.2883H8.94271C6.21293 23.2883 4 21.1556 4 18.5248V4.76352Z" fill="#D3D3D3"/>
<path d="M32.7583 23.6172L28.4963 20.0669L32.8739 18.3479L32.7583 23.6172Z" fill="#272A31"/>
<path d="M5.61816 5.59283C5.61816 3.32075 7.63351 1.47887 10.1196 1.47887H28.6253C31.1114 1.47887 33.1267 3.32076 33.1267 5.59283V17.4776C33.1267 19.7497 31.1114 21.5915 28.6253 21.5915H10.1196C7.63351 21.5915 5.61816 19.7497 5.61816 17.4776V5.59283Z" fill="#272A31"/>
<line x1="9.39386" y1="5.3147" x2="23.4178" y2="5.3147" stroke="#D3D3D3" stroke-width="2.1875"/>
<line x1="9.39386" y1="9.25836" x2="23.4178" y2="9.25836" stroke="#D3D3D3" stroke-width="2.1875"/>
<line x1="9.39386" y1="13.2302" x2="17.4846" y2="13.2302" stroke="#D3D3D3" stroke-width="2.1875"/>
</g>
<defs>
<filter id="filter0_d_4_42" x="0" y="0" width="47.375" height="43" filterUnits="userSpaceOnUse" color-interpolation-filters="sRGB">
<feFlood flood-opacity="0" result="BackgroundImageFix"/>
<feColorMatrix in="SourceAlpha" type="matrix" values="0 0 0 0 0 0 0 0 0 0 0 0 0 0 0 0 0 0 127 0" result="hardAlpha"/>
<feOffset dy="4"/>
<feGaussianBlur stdDeviation="2"/>
<feComposite in2="hardAlpha" operator="out"/>
<feColorMatrix type="matrix" values="0 0 0 0 0 0 0 0 0 0 0 0 0 0 0 0 0 0 0.25 0"/>
<feBlend mode="normal" in2="BackgroundImageFix" result="effect1_dropShadow_4_42"/>
<feBlend mode="normal" in="SourceGraphic" in2="effect1_dropShadow_4_42" result="shape"/>
</filter>
</defs>
</svg>
