<svg width="229" height="122" viewBox="0 0 229 122" fill="none" xmlns="http://www.w3.org/2000/svg">
<g id="logo" filter="url(#filter0_dddd_25_378)">
<path id="Y" d="M15.736 36.64L25.384 54.28L35.176 36.64H45.904L30.064 63.28V82H20.2V63.28L4.648 36.64H15.736Z" fill="#272A31"/>
<path id="Tech" d="M75.928 36.64V44.416H63.112V82H53.248V44.416H40.72V36.64H75.928ZM107.193 67.312H84.3694V67.6C84.3694 70.336 85.3294 72.376 87.2494 73.72C89.1694 75.064 91.6414 75.736 94.6654 75.736C96.5854 75.736 98.2654 75.544 99.7054 75.16C101.193 74.776 102.537 74.32 103.737 73.792L105.465 80.488C104.169 81.112 102.537 81.64 100.569 82.072C98.6014 82.552 96.2734 82.792 93.5854 82.792C90.9934 82.792 88.5454 82.456 86.2414 81.784C83.9854 81.064 81.9934 79.984 80.2654 78.544C78.5854 77.104 77.2414 75.28 76.2334 73.072C75.2254 70.864 74.7214 68.224 74.7214 65.152C74.7214 62.416 75.1294 59.944 75.9454 57.736C76.7614 55.48 77.9134 53.56 79.4014 51.976C80.9374 50.392 82.7614 49.168 84.8734 48.304C86.9854 47.392 89.3374 46.936 91.9294 46.936C96.5854 46.936 100.281 48.352 103.017 51.184C105.801 54.016 107.193 57.976 107.193 63.064V67.312ZM97.4014 60.76C97.4014 59.848 97.2814 58.96 97.0414 58.096C96.8494 57.232 96.5134 56.488 96.0334 55.864C95.5534 55.192 94.9534 54.664 94.2334 54.28C93.5134 53.896 92.6254 53.704 91.5694 53.704C89.6494 53.704 88.0654 54.352 86.8174 55.648C85.5694 56.944 84.8254 58.696 84.5854 60.904L97.4014 60.76ZM131.929 75.736C133.465 75.736 134.809 75.544 135.961 75.16C137.161 74.728 138.145 74.32 138.913 73.936L140.713 80.56C139.753 81.088 138.361 81.592 136.537 82.072C134.713 82.552 132.721 82.792 130.561 82.792C127.969 82.792 125.545 82.408 123.289 81.64C121.033 80.872 119.065 79.744 117.385 78.256C115.753 76.72 114.457 74.848 113.497 72.64C112.537 70.432 112.057 67.864 112.057 64.936C112.057 62.248 112.513 59.8 113.425 57.592C114.337 55.384 115.609 53.488 117.241 51.904C118.873 50.32 120.841 49.096 123.145 48.232C125.449 47.368 127.969 46.936 130.705 46.936C132.193 46.936 133.753 47.08 135.385 47.368C137.065 47.656 138.817 48.28 140.641 49.24L138.625 55.864C137.617 55.288 136.513 54.832 135.313 54.496C134.161 54.112 132.985 53.92 131.785 53.92C128.809 53.92 126.385 54.832 124.513 56.656C122.689 58.48 121.777 61.144 121.777 64.648C121.777 66.712 122.065 68.464 122.641 69.904C123.265 71.296 124.057 72.424 125.017 73.288C125.977 74.152 127.057 74.776 128.257 75.16C129.457 75.544 130.681 75.736 131.929 75.736ZM156.837 82H147.261V30.592H156.837V50.752C158.229 49.648 159.813 48.736 161.589 48.016C163.413 47.296 165.381 46.936 167.493 46.936C169.509 46.936 171.261 47.248 172.749 47.872C174.285 48.448 175.533 49.288 176.493 50.392C177.501 51.448 178.245 52.744 178.725 54.28C179.205 55.768 179.445 57.4 179.445 59.176V82H169.869V60.832C169.869 58.48 169.389 56.8 168.429 55.792C167.469 54.784 166.077 54.28 164.253 54.28C163.005 54.28 161.709 54.592 160.365 55.216C159.069 55.792 157.893 56.584 156.837 57.592V82Z" fill="#272A31"/>
<rect id="roll" x="148" y="18" width="9" height="9" fill="#EC5242"/>
<path id="Global" d="M38.648 101.4V110.76C37.4747 111.624 36.2213 112.259 34.888 112.664C33.5653 113.059 32.1467 113.256 30.632 113.256C28.744 113.256 27.032 112.963 25.496 112.376C23.9707 111.789 22.664 110.973 21.576 109.928C20.4987 108.883 19.6667 107.635 19.08 106.184C18.4933 104.733 18.2 103.149 18.2 101.432C18.2 99.6933 18.4827 98.0987 19.048 96.648C19.6133 95.1973 20.4133 93.9493 21.448 92.904C22.4933 91.8587 23.7573 91.048 25.24 90.472C26.7227 89.896 28.3867 89.608 30.232 89.608C31.1707 89.608 32.0453 89.6827 32.856 89.832C33.6773 89.9813 34.4347 90.1893 35.128 90.456C35.832 90.712 36.472 91.0267 37.048 91.4C37.624 91.7733 38.152 92.184 38.632 92.632L37.4 94.584C37.208 94.8933 36.9573 95.0853 36.648 95.16C36.3387 95.224 36.0027 95.144 35.64 94.92C35.288 94.7173 34.936 94.5147 34.584 94.312C34.232 94.1093 33.8373 93.9333 33.4 93.784C32.9733 93.6347 32.488 93.512 31.944 93.416C31.4107 93.32 30.792 93.272 30.088 93.272C28.9467 93.272 27.912 93.464 26.984 93.848C26.0667 94.232 25.2827 94.7813 24.632 95.496C23.9813 96.2107 23.48 97.0693 23.128 98.072C22.776 99.0747 22.6 100.195 22.6 101.432C22.6 102.755 22.7867 103.939 23.16 104.984C23.544 106.019 24.0773 106.899 24.76 107.624C25.4533 108.339 26.2853 108.888 27.256 109.272C28.2267 109.645 29.3093 109.832 30.504 109.832C31.3573 109.832 32.12 109.741 32.792 109.56C33.464 109.379 34.12 109.133 34.76 108.824V104.632H31.848C31.5707 104.632 31.352 104.557 31.192 104.408C31.0427 104.248 30.968 104.056 30.968 103.832V101.4H38.648ZM46.1083 89.224V113H42.1562V89.224H46.1083ZM57.3098 96.328C58.5258 96.328 59.6298 96.5253 60.6218 96.92C61.6244 97.3147 62.4778 97.8747 63.1818 98.6C63.8964 99.3253 64.4457 100.211 64.8298 101.256C65.2138 102.301 65.4058 103.469 65.4058 104.76C65.4058 106.061 65.2138 107.235 64.8298 108.28C64.4457 109.325 63.8964 110.216 63.1818 110.952C62.4778 111.688 61.6244 112.253 60.6218 112.648C59.6298 113.043 58.5258 113.24 57.3098 113.24C56.0831 113.24 54.9684 113.043 53.9658 112.648C52.9631 112.253 52.1044 111.688 51.3898 110.952C50.6858 110.216 50.1364 109.325 49.7418 108.28C49.3578 107.235 49.1658 106.061 49.1658 104.76C49.1658 103.469 49.3578 102.301 49.7418 101.256C50.1364 100.211 50.6858 99.3253 51.3898 98.6C52.1044 97.8747 52.9631 97.3147 53.9658 96.92C54.9684 96.5253 56.0831 96.328 57.3098 96.328ZM57.3098 110.2C58.6751 110.2 59.6831 109.741 60.3338 108.824C60.9951 107.907 61.3258 106.563 61.3258 104.792C61.3258 103.021 60.9951 101.672 60.3338 100.744C59.6831 99.816 58.6751 99.352 57.3098 99.352C55.9231 99.352 54.8938 99.8213 54.2218 100.76C53.5604 101.688 53.2298 103.032 53.2298 104.792C53.2298 106.552 53.5604 107.896 54.2218 108.824C54.8938 109.741 55.9231 110.2 57.3098 110.2ZM72.3728 108.744C72.8208 109.288 73.3061 109.672 73.8288 109.896C74.3621 110.12 74.9221 110.232 75.5087 110.232C76.1168 110.232 76.6608 110.125 77.1408 109.912C77.6314 109.688 78.0474 109.347 78.3888 108.888C78.7301 108.419 78.9914 107.827 79.1728 107.112C79.3541 106.387 79.4448 105.523 79.4448 104.52C79.4448 102.717 79.1461 101.416 78.5488 100.616C77.9514 99.8053 77.0928 99.4 75.9728 99.4C75.2154 99.4 74.5541 99.576 73.9888 99.928C73.4234 100.269 72.8848 100.755 72.3728 101.384V108.744ZM72.3728 98.6C73.0341 97.9067 73.7648 97.3573 74.5648 96.952C75.3754 96.536 76.2981 96.328 77.3328 96.328C78.2821 96.328 79.1354 96.5147 79.8928 96.888C80.6608 97.2613 81.3114 97.8 81.8448 98.504C82.3888 99.1973 82.8048 100.04 83.0928 101.032C83.3808 102.024 83.5248 103.139 83.5248 104.376C83.5248 105.709 83.3594 106.92 83.0288 108.008C82.6981 109.096 82.2234 110.029 81.6048 110.808C80.9968 111.576 80.2608 112.173 79.3968 112.6C78.5328 113.027 77.5728 113.24 76.5168 113.24C76.0048 113.24 75.5408 113.187 75.1248 113.08C74.7088 112.984 74.3248 112.845 73.9728 112.664C73.6208 112.483 73.2954 112.264 72.9968 112.008C72.7088 111.741 72.4314 111.448 72.1648 111.128L71.9888 112.232C71.9248 112.509 71.8128 112.707 71.6528 112.824C71.5034 112.941 71.2954 113 71.0288 113H68.4208V89.224H72.3728V98.6ZM95.249 105.992C94.1077 106.045 93.1477 106.147 92.369 106.296C91.5903 106.435 90.9663 106.616 90.497 106.84C90.0277 107.064 89.6917 107.325 89.489 107.624C89.2863 107.923 89.185 108.248 89.185 108.6C89.185 109.293 89.3877 109.789 89.793 110.088C90.209 110.387 90.7477 110.536 91.409 110.536C92.2197 110.536 92.9183 110.392 93.505 110.104C94.1023 109.805 94.6837 109.357 95.249 108.76V105.992ZM86.193 98.872C88.081 97.144 90.353 96.28 93.009 96.28C93.969 96.28 94.8277 96.44 95.585 96.76C96.3423 97.0693 96.9823 97.5067 97.505 98.072C98.0277 98.6267 98.4223 99.2933 98.689 100.072C98.9663 100.851 99.105 101.704 99.105 102.632V113H97.313C96.9397 113 96.6517 112.947 96.449 112.84C96.2463 112.723 96.0863 112.493 95.969 112.152L95.617 110.968C95.201 111.341 94.7957 111.672 94.401 111.96C94.0063 112.237 93.5957 112.472 93.169 112.664C92.7423 112.856 92.2837 113 91.793 113.096C91.313 113.203 90.7797 113.256 90.193 113.256C89.4997 113.256 88.8597 113.165 88.273 112.984C87.6863 112.792 87.1797 112.509 86.753 112.136C86.3263 111.763 85.9957 111.299 85.761 110.744C85.5263 110.189 85.409 109.544 85.409 108.808C85.409 108.392 85.4783 107.981 85.617 107.576C85.7557 107.16 85.9797 106.765 86.289 106.392C86.609 106.019 87.0197 105.667 87.521 105.336C88.0223 105.005 88.6357 104.717 89.361 104.472C90.097 104.227 90.9503 104.029 91.921 103.88C92.8917 103.72 94.001 103.624 95.249 103.592V102.632C95.249 101.533 95.0143 100.723 94.545 100.2C94.0757 99.6667 93.3983 99.4 92.513 99.4C91.873 99.4 91.3397 99.4747 90.913 99.624C90.497 99.7733 90.129 99.944 89.809 100.136C89.489 100.317 89.1957 100.483 88.929 100.632C88.673 100.781 88.385 100.856 88.065 100.856C87.7877 100.856 87.553 100.787 87.361 100.648C87.169 100.499 87.0143 100.328 86.897 100.136L86.193 98.872ZM106.827 89.224V113H102.875V89.224H106.827Z" fill="#272A31" fill-opacity="0.9"/>
<path id="Summit" d="M129.656 93.656C129.56 93.816 129.453 93.9387 129.336 94.024C129.229 94.0987 129.096 94.136 128.936 94.136C128.755 94.136 128.541 94.0453 128.296 93.864C128.051 93.6827 127.741 93.4853 127.368 93.272C127.005 93.048 126.563 92.8453 126.04 92.664C125.528 92.4827 124.904 92.392 124.168 92.392C123.475 92.392 122.861 92.488 122.328 92.68C121.805 92.8613 121.363 93.112 121 93.432C120.648 93.752 120.381 94.1307 120.2 94.568C120.019 94.9947 119.928 95.4587 119.928 95.96C119.928 96.6 120.083 97.1333 120.392 97.56C120.712 97.976 121.128 98.3333 121.64 98.632C122.163 98.9307 122.749 99.192 123.4 99.416C124.061 99.6293 124.733 99.8533 125.416 100.088C126.109 100.323 126.781 100.589 127.432 100.888C128.093 101.176 128.68 101.544 129.192 101.992C129.715 102.44 130.131 102.989 130.44 103.64C130.76 104.291 130.92 105.091 130.92 106.04C130.92 107.043 130.749 107.987 130.408 108.872C130.067 109.747 129.565 110.509 128.904 111.16C128.253 111.811 127.448 112.323 126.488 112.696C125.539 113.069 124.456 113.256 123.24 113.256C121.747 113.256 120.392 112.989 119.176 112.456C117.96 111.912 116.92 111.181 116.056 110.264L116.952 108.792C117.037 108.675 117.139 108.579 117.256 108.504C117.384 108.419 117.523 108.376 117.672 108.376C117.811 108.376 117.965 108.435 118.136 108.552C118.317 108.659 118.52 108.797 118.744 108.968C118.968 109.139 119.224 109.325 119.512 109.528C119.8 109.731 120.125 109.917 120.488 110.088C120.861 110.259 121.283 110.403 121.752 110.52C122.221 110.627 122.749 110.68 123.336 110.68C124.072 110.68 124.728 110.579 125.304 110.376C125.88 110.173 126.365 109.891 126.76 109.528C127.165 109.155 127.475 108.712 127.688 108.2C127.901 107.688 128.008 107.117 128.008 106.488C128.008 105.795 127.848 105.229 127.528 104.792C127.219 104.344 126.808 103.971 126.296 103.672C125.784 103.373 125.197 103.123 124.536 102.92C123.875 102.707 123.203 102.493 122.52 102.28C121.837 102.056 121.165 101.8 120.504 101.512C119.843 101.224 119.256 100.851 118.744 100.392C118.232 99.9333 117.816 99.3627 117.496 98.68C117.187 97.9867 117.032 97.1333 117.032 96.12C117.032 95.3093 117.187 94.5253 117.496 93.768C117.816 93.0107 118.275 92.3387 118.872 91.752C119.48 91.1653 120.221 90.696 121.096 90.344C121.981 89.992 122.995 89.816 124.136 89.816C125.416 89.816 126.579 90.0187 127.624 90.424C128.68 90.8293 129.608 91.416 130.408 92.184L129.656 93.656ZM147.647 96.792V113H145.951C145.545 113 145.289 112.803 145.183 112.408L144.959 110.664C144.255 111.443 143.465 112.072 142.591 112.552C141.716 113.021 140.713 113.256 139.583 113.256C138.697 113.256 137.913 113.112 137.231 112.824C136.559 112.525 135.993 112.109 135.535 111.576C135.076 111.043 134.729 110.397 134.495 109.64C134.271 108.883 134.159 108.045 134.159 107.128V96.792H137.007V107.128C137.007 108.355 137.284 109.304 137.839 109.976C138.404 110.648 139.263 110.984 140.415 110.984C141.257 110.984 142.041 110.787 142.767 110.392C143.503 109.987 144.18 109.432 144.799 108.728V96.792H147.647ZM152.162 113V96.792H153.874C154.28 96.792 154.53 96.9893 154.626 97.384L154.834 99.048C155.432 98.312 156.104 97.7093 156.85 97.24C157.597 96.7707 158.461 96.536 159.442 96.536C160.53 96.536 161.41 96.84 162.082 97.448C162.765 98.056 163.256 98.8773 163.554 99.912C163.789 99.3253 164.088 98.8187 164.45 98.392C164.824 97.9653 165.24 97.6133 165.698 97.336C166.157 97.0587 166.642 96.856 167.154 96.728C167.677 96.6 168.205 96.536 168.738 96.536C169.592 96.536 170.349 96.6747 171.01 96.952C171.682 97.2187 172.248 97.6133 172.706 98.136C173.176 98.6587 173.533 99.304 173.778 100.072C174.024 100.829 174.146 101.699 174.146 102.68V113H171.282V102.68C171.282 101.411 171.005 100.451 170.45 99.8C169.896 99.1387 169.096 98.808 168.05 98.808C167.581 98.808 167.133 98.8933 166.706 99.064C166.29 99.224 165.922 99.464 165.602 99.784C165.282 100.104 165.026 100.509 164.834 101C164.653 101.48 164.562 102.04 164.562 102.68V113H161.698V102.68C161.698 101.379 161.437 100.408 160.914 99.768C160.392 99.128 159.629 98.808 158.626 98.808C157.922 98.808 157.272 99 156.674 99.384C156.077 99.7573 155.528 100.269 155.026 100.92V113H152.162ZM178.475 113V96.792H180.187C180.592 96.792 180.843 96.9893 180.939 97.384L181.147 99.048C181.744 98.312 182.416 97.7093 183.163 97.24C183.909 96.7707 184.773 96.536 185.755 96.536C186.843 96.536 187.723 96.84 188.395 97.448C189.077 98.056 189.568 98.8773 189.867 99.912C190.101 99.3253 190.4 98.8187 190.763 98.392C191.136 97.9653 191.552 97.6133 192.011 97.336C192.469 97.0587 192.955 96.856 193.467 96.728C193.989 96.6 194.517 96.536 195.051 96.536C195.904 96.536 196.661 96.6747 197.323 96.952C197.995 97.2187 198.56 97.6133 199.019 98.136C199.488 98.6587 199.845 99.304 200.091 100.072C200.336 100.829 200.459 101.699 200.459 102.68V113H197.595V102.68C197.595 101.411 197.317 100.451 196.763 99.8C196.208 99.1387 195.408 98.808 194.363 98.808C193.893 98.808 193.445 98.8933 193.019 99.064C192.603 99.224 192.235 99.464 191.915 99.784C191.595 100.104 191.339 100.509 191.147 101C190.965 101.48 190.875 102.04 190.875 102.68V113H188.011V102.68C188.011 101.379 187.749 100.408 187.227 99.768C186.704 99.128 185.941 98.808 184.939 98.808C184.235 98.808 183.584 99 182.987 99.384C182.389 99.7573 181.84 100.269 181.339 100.92V113H178.475ZM207.795 96.792V113H204.947V96.792H207.795ZM208.403 91.704C208.403 91.9813 208.345 92.2427 208.227 92.488C208.121 92.7227 207.971 92.936 207.779 93.128C207.598 93.3093 207.379 93.4533 207.123 93.56C206.878 93.6667 206.617 93.72 206.339 93.72C206.062 93.72 205.801 93.6667 205.555 93.56C205.321 93.4533 205.113 93.3093 204.931 93.128C204.75 92.936 204.606 92.7227 204.499 92.488C204.393 92.2427 204.339 91.9813 204.339 91.704C204.339 91.4267 204.393 91.1653 204.499 90.92C204.606 90.664 204.75 90.4453 204.931 90.264C205.113 90.072 205.321 89.9227 205.555 89.816C205.801 89.7093 206.062 89.656 206.339 89.656C206.617 89.656 206.878 89.7093 207.123 89.816C207.379 89.9227 207.598 90.072 207.779 90.264C207.971 90.4453 208.121 90.664 208.227 90.92C208.345 91.1653 208.403 91.4267 208.403 91.704ZM217.451 113.256C216.171 113.256 215.184 112.899 214.491 112.184C213.808 111.469 213.467 110.44 213.467 109.096V99.176H211.515C211.344 99.176 211.2 99.128 211.083 99.032C210.965 98.9253 210.907 98.7653 210.907 98.552V97.416L213.563 97.08L214.219 92.072C214.251 91.912 214.32 91.784 214.427 91.688C214.544 91.5813 214.693 91.528 214.875 91.528H216.315V97.112H221.003V99.176H216.315V108.904C216.315 109.587 216.48 110.093 216.811 110.424C217.141 110.755 217.568 110.92 218.091 110.92C218.389 110.92 218.645 110.883 218.859 110.808C219.083 110.723 219.275 110.632 219.435 110.536C219.595 110.44 219.728 110.355 219.835 110.28C219.952 110.195 220.053 110.152 220.139 110.152C220.288 110.152 220.421 110.243 220.539 110.424L221.371 111.784C220.88 112.243 220.288 112.605 219.595 112.872C218.901 113.128 218.187 113.256 217.451 113.256Z" fill="#272A31"/>
<path id="2022" d="M153.891 89.4531C152.703 89.0469 151.047 88.8438 148.922 88.8438C145.151 88.8438 141.542 89.3698 138.094 90.4219C137.875 90.4948 137.672 90.5312 137.484 90.5312C137.297 90.5312 137.083 90.4792 136.844 90.375C136.615 90.2812 136.391 90.0833 136.172 89.7812C135.724 89.1771 135.5 88.3802 135.5 87.3906C135.5 86.5365 135.651 85.9323 135.953 85.5781C136.255 85.224 136.734 84.8594 137.391 84.4844C138.047 84.099 138.828 83.6771 139.734 83.2188C140.641 82.7604 141.63 82.2708 142.703 81.75C143.786 81.2188 144.87 80.6667 145.953 80.0938C147.036 79.5104 148.083 78.9062 149.094 78.2812C150.115 77.6458 151.016 77 151.797 76.3438C153.526 74.8958 154.391 73.5365 154.391 72.2656C154.391 71.2552 153.76 70.6354 152.5 70.4062C152.156 70.3438 151.745 70.3125 151.266 70.3125C150.797 70.3125 150.245 70.375 149.609 70.5C148.974 70.625 148.359 70.7917 147.766 71C147.182 71.2083 146.635 71.4479 146.125 71.7188C145.625 71.9792 145.188 72.25 144.812 72.5312C144.01 73.1458 143.609 73.7292 143.609 74.2812C143.609 74.8229 143.958 75.276 144.656 75.6406C144.396 76.0156 144.156 76.2656 143.938 76.3906C143.719 76.5052 143.536 76.5625 143.391 76.5625C143.245 76.5625 143 76.526 142.656 76.4531C142.312 76.3698 141.979 76.25 141.656 76.0938C140.875 75.6875 140.484 75.2292 140.484 74.7188C140.484 74.1979 140.661 73.6875 141.016 73.1875C141.38 72.6875 141.865 72.2083 142.469 71.75C143.073 71.2917 143.771 70.8646 144.562 70.4688C145.365 70.0729 146.198 69.7292 147.062 69.4375C148.917 68.8021 150.646 68.4844 152.25 68.4844C153.927 68.4844 155.229 68.9062 156.156 69.75C156.969 70.5 157.375 71.4688 157.375 72.6562C157.375 75.375 155.24 78.2031 150.969 81.1406C149.094 82.4427 146.964 83.6562 144.578 84.7812C145.599 84.6771 146.474 84.625 147.203 84.625C147.943 84.625 148.552 84.6354 149.031 84.6562C149.51 84.6771 149.995 84.7135 150.484 84.7656C151.495 84.8698 152.339 85.0365 153.016 85.2656C153.693 85.4844 154.156 85.7448 154.406 86.0469C154.677 86.3906 154.812 86.75 154.812 87.125C154.812 87.8958 154.505 88.6719 153.891 89.4531ZM158.062 83.9531C158.062 81.6198 159.005 79.0729 160.891 76.3125C162.068 74.5833 163.474 73.0521 165.109 71.7188C167.776 69.5521 170.417 68.4688 173.031 68.4688C174.708 68.4688 176.016 69.0208 176.953 70.125C177.891 71.2188 178.359 72.75 178.359 74.7188C178.359 77.0208 177.76 79.3385 176.562 81.6719C175.302 84.1198 173.661 86.0938 171.641 87.5938C169.391 89.2604 166.948 90.0938 164.312 90.0938C162.219 90.0938 160.651 89.5573 159.609 88.4844C158.578 87.401 158.062 85.8906 158.062 83.9531ZM164.594 76.4219C164.156 77.276 163.812 78.1667 163.562 79.0938C163.312 80.0208 163.188 80.9688 163.188 81.9375C163.188 82.9062 163.469 83.6667 164.031 84.2188C164.604 84.7708 165.339 85.0469 166.234 85.0469C167.13 85.0469 167.948 84.8958 168.688 84.5938C169.438 84.2812 170.161 83.8646 170.859 83.3438C171.557 82.8125 172.208 82.1927 172.812 81.4844C173.427 80.776 173.964 80.0208 174.422 79.2188C175.401 77.5208 175.891 75.8646 175.891 74.25C175.891 72.3542 175.286 71.1042 174.078 70.5C173.682 70.3021 173.151 70.2031 172.484 70.2031C171.828 70.2031 171.109 70.3646 170.328 70.6875C169.547 71.0104 168.802 71.4531 168.094 72.0156C167.396 72.5781 166.745 73.2396 166.141 74C165.547 74.75 165.031 75.5573 164.594 76.4219ZM195.891 89.4531C194.703 89.0469 193.047 88.8438 190.922 88.8438C187.151 88.8438 183.542 89.3698 180.094 90.4219C179.875 90.4948 179.672 90.5312 179.484 90.5312C179.297 90.5312 179.083 90.4792 178.844 90.375C178.615 90.2812 178.391 90.0833 178.172 89.7812C177.724 89.1771 177.5 88.3802 177.5 87.3906C177.5 86.5365 177.651 85.9323 177.953 85.5781C178.255 85.224 178.734 84.8594 179.391 84.4844C180.047 84.099 180.828 83.6771 181.734 83.2188C182.641 82.7604 183.63 82.2708 184.703 81.75C185.786 81.2188 186.87 80.6667 187.953 80.0938C189.036 79.5104 190.083 78.9062 191.094 78.2812C192.115 77.6458 193.016 77 193.797 76.3438C195.526 74.8958 196.391 73.5365 196.391 72.2656C196.391 71.2552 195.76 70.6354 194.5 70.4062C194.156 70.3438 193.745 70.3125 193.266 70.3125C192.797 70.3125 192.245 70.375 191.609 70.5C190.974 70.625 190.359 70.7917 189.766 71C189.182 71.2083 188.635 71.4479 188.125 71.7188C187.625 71.9792 187.188 72.25 186.812 72.5312C186.01 73.1458 185.609 73.7292 185.609 74.2812C185.609 74.8229 185.958 75.276 186.656 75.6406C186.396 76.0156 186.156 76.2656 185.938 76.3906C185.719 76.5052 185.536 76.5625 185.391 76.5625C185.245 76.5625 185 76.526 184.656 76.4531C184.312 76.3698 183.979 76.25 183.656 76.0938C182.875 75.6875 182.484 75.2292 182.484 74.7188C182.484 74.1979 182.661 73.6875 183.016 73.1875C183.38 72.6875 183.865 72.2083 184.469 71.75C185.073 71.2917 185.771 70.8646 186.562 70.4688C187.365 70.0729 188.198 69.7292 189.062 69.4375C190.917 68.8021 192.646 68.4844 194.25 68.4844C195.927 68.4844 197.229 68.9062 198.156 69.75C198.969 70.5 199.375 71.4688 199.375 72.6562C199.375 75.375 197.24 78.2031 192.969 81.1406C191.094 82.4427 188.964 83.6562 186.578 84.7812C187.599 84.6771 188.474 84.625 189.203 84.625C189.943 84.625 190.552 84.6354 191.031 84.6562C191.51 84.6771 191.995 84.7135 192.484 84.7656C193.495 84.8698 194.339 85.0365 195.016 85.2656C195.693 85.4844 196.156 85.7448 196.406 86.0469C196.677 86.3906 196.812 86.75 196.812 87.125C196.812 87.8958 196.505 88.6719 195.891 89.4531ZM216.734 89.4531C215.547 89.0469 213.891 88.8438 211.766 88.8438C207.995 88.8438 204.385 89.3698 200.938 90.4219C200.719 90.4948 200.516 90.5312 200.328 90.5312C200.141 90.5312 199.927 90.4792 199.688 90.375C199.458 90.2812 199.234 90.0833 199.016 89.7812C198.568 89.1771 198.344 88.3802 198.344 87.3906C198.344 86.5365 198.495 85.9323 198.797 85.5781C199.099 85.224 199.578 84.8594 200.234 84.4844C200.891 84.099 201.672 83.6771 202.578 83.2188C203.484 82.7604 204.474 82.2708 205.547 81.75C206.63 81.2188 207.714 80.6667 208.797 80.0938C209.88 79.5104 210.927 78.9062 211.938 78.2812C212.958 77.6458 213.859 77 214.641 76.3438C216.37 74.8958 217.234 73.5365 217.234 72.2656C217.234 71.2552 216.604 70.6354 215.344 70.4062C215 70.3438 214.589 70.3125 214.109 70.3125C213.641 70.3125 213.089 70.375 212.453 70.5C211.818 70.625 211.203 70.7917 210.609 71C210.026 71.2083 209.479 71.4479 208.969 71.7188C208.469 71.9792 208.031 72.25 207.656 72.5312C206.854 73.1458 206.453 73.7292 206.453 74.2812C206.453 74.8229 206.802 75.276 207.5 75.6406C207.24 76.0156 207 76.2656 206.781 76.3906C206.562 76.5052 206.38 76.5625 206.234 76.5625C206.089 76.5625 205.844 76.526 205.5 76.4531C205.156 76.3698 204.823 76.25 204.5 76.0938C203.719 75.6875 203.328 75.2292 203.328 74.7188C203.328 74.1979 203.505 73.6875 203.859 73.1875C204.224 72.6875 204.708 72.2083 205.312 71.75C205.917 71.2917 206.615 70.8646 207.406 70.4688C208.208 70.0729 209.042 69.7292 209.906 69.4375C211.76 68.8021 213.49 68.4844 215.094 68.4844C216.771 68.4844 218.073 68.9062 219 69.75C219.812 70.5 220.219 71.4688 220.219 72.6562C220.219 75.375 218.083 78.2031 213.812 81.1406C211.938 82.4427 209.807 83.6562 207.422 84.7812C208.443 84.6771 209.318 84.625 210.047 84.625C210.786 84.625 211.396 84.6354 211.875 84.6562C212.354 84.6771 212.839 84.7135 213.328 84.7656C214.339 84.8698 215.182 85.0365 215.859 85.2656C216.536 85.4844 217 85.7448 217.25 86.0469C217.521 86.3906 217.656 86.75 217.656 87.125C217.656 87.8958 217.349 88.6719 216.734 89.4531Z" fill="#EC5242" fill-opacity="0.9"/>
<path id="&#226;&#128;&#152;n&#226;&#128;&#153;" d="M31.3125 50.2031C31.6667 50.5573 31.8438 50.9427 31.8438 51.3594C31.8438 51.7656 31.7812 52.1042 31.6562 52.375C31.5417 52.6458 31.375 52.8854 31.1562 53.0938C30.6979 53.5417 30.151 53.7656 29.5156 53.7656C28.8802 53.7656 28.3698 53.599 27.9844 53.2656C27.6094 52.9219 27.4219 52.4948 27.4219 51.9844C27.4219 51.474 27.5208 50.9844 27.7188 50.5156C27.9271 50.0365 28.1979 49.5781 28.5312 49.1406C28.8646 48.7031 29.2344 48.2969 29.6406 47.9219C30.0573 47.5365 30.4792 47.1979 30.9062 46.9062C31.8021 46.3021 32.526 46 33.0781 46C33.2865 46 33.4792 46.0885 33.6562 46.2656C33.8438 46.4323 33.9479 46.5469 33.9688 46.6094C33.0521 47.526 32.3906 48.2969 31.9844 48.9219C31.5781 49.5469 31.3542 49.974 31.3125 50.2031ZM38.1406 68.4062C38.1406 68.8229 37.7917 69.0312 37.0938 69.0312C35.3646 69.0312 34.1354 68.3438 33.4062 66.9688C33.1354 66.4792 33 65.8958 33 65.2188C33 64.5417 33.099 63.8698 33.2969 63.2031C33.4948 62.526 33.7604 61.8594 34.0938 61.2031C34.4271 60.5469 34.8125 59.9115 35.25 59.2969C35.6875 58.6823 36.151 58.1146 36.6406 57.5938C37.6719 56.4896 38.651 55.7135 39.5781 55.2656C39.8281 55.151 40.0521 55.0938 40.25 55.0938C40.4583 55.0938 40.6302 55.099 40.7656 55.1094C41.1094 55.1406 41.3646 55.2708 41.5312 55.5C40.8958 56.8438 40.375 58.0729 39.9688 59.1875C41.8229 57.3646 43.9792 56.1198 46.4375 55.4531C47.2396 55.2344 47.9375 55.125 48.5312 55.125C49.1354 55.125 49.4844 55.2396 49.5781 55.4688C49.6719 55.6875 49.7188 55.8906 49.7188 56.0781C49.7188 56.2656 49.6927 56.5208 49.6406 56.8438C49.5885 57.1562 49.4531 57.5938 49.2344 58.1562C49.0156 58.7188 48.7917 59.2865 48.5625 59.8594C47.9792 61.3177 47.6875 62.3125 47.6875 62.8438C47.6875 63.7604 48.0156 64.2188 48.6719 64.2188C49.7969 64.2188 51.0365 63.4792 52.3906 62C52.7865 61.5729 53.1458 61.1146 53.4688 60.625C53.9375 60.5938 54.1719 60.7865 54.1719 61.2031C54.1719 61.5365 53.9583 62.0885 53.5312 62.8594C53.1042 63.6198 52.6927 64.2812 52.2969 64.8438C51.9115 65.3958 51.474 65.9375 50.9844 66.4688C50.4948 67 49.9583 67.4792 49.375 67.9062C48.1042 68.8333 46.8646 69.2969 45.6562 69.2969C44.4479 69.2969 43.5312 68.9792 42.9062 68.3438C42.2812 67.7083 41.9688 66.7812 41.9688 65.5625C41.9688 63.7604 42.9062 61.6042 44.7812 59.0938C45.3542 58.3333 45.6042 57.9531 45.5312 57.9531C44.7396 57.9531 43.625 58.4531 42.1875 59.4531C40.7604 60.4531 39.6719 61.5156 38.9219 62.6406C38.4427 64.5885 38.1823 66.5104 38.1406 68.4062ZM60.1406 49.5625C59.7865 49.2083 59.6094 48.8281 59.6094 48.4219C59.6094 48.0052 59.6667 47.6615 59.7812 47.3906C59.9062 47.1198 60.0729 46.8802 60.2812 46.6719C60.75 46.224 61.3021 46 61.9375 46C62.5729 46 63.0781 46.1719 63.4531 46.5156C63.8385 46.849 64.0312 47.2708 64.0312 47.7812C64.0312 48.2917 63.9271 48.7865 63.7188 49.2656C63.5208 49.7344 63.2552 50.1875 62.9219 50.625C62.5885 51.0625 62.2135 51.474 61.7969 51.8594C61.3906 52.2344 60.9792 52.5625 60.5625 52.8438C59.6562 53.4583 58.9271 53.7656 58.375 53.7656C58.1458 53.7656 57.9427 53.6823 57.7656 53.5156C57.599 53.3385 57.5052 53.2188 57.4844 53.1562C58.4219 52.2188 59.0833 51.4427 59.4688 50.8281C59.8646 50.2135 60.0885 49.7917 60.1406 49.5625Z" fill="#EC5242"/>
</g>
<defs>
<filter id="filter0_dddd_25_378" x="0.647949" y="18" width="224.723" height="103.256" filterUnits="userSpaceOnUse" color-interpolation-filters="sRGB">
<feFlood flood-opacity="0" result="BackgroundImageFix"/>
<feColorMatrix in="SourceAlpha" type="matrix" values="0 0 0 0 0 0 0 0 0 0 0 0 0 0 0 0 0 0 127 0" result="hardAlpha"/>
<feOffset dy="4"/>
<feGaussianBlur stdDeviation="2"/>
<feComposite in2="hardAlpha" operator="out"/>
<feColorMatrix type="matrix" values="0 0 0 0 0 0 0 0 0 0 0 0 0 0 0 0 0 0 0.25 0"/>
<feBlend mode="normal" in2="BackgroundImageFix" result="effect1_dropShadow_25_378"/>
<feColorMatrix in="SourceAlpha" type="matrix" values="0 0 0 0 0 0 0 0 0 0 0 0 0 0 0 0 0 0 127 0" result="hardAlpha"/>
<feOffset dy="4"/>
<feGaussianBlur stdDeviation="2"/>
<feComposite in2="hardAlpha" operator="out"/>
<feColorMatrix type="matrix" values="0 0 0 0 0 0 0 0 0 0 0 0 0 0 0 0 0 0 0.25 0"/>
<feBlend mode="normal" in2="effect1_dropShadow_25_378" result="effect2_dropShadow_25_378"/>
<feColorMatrix in="SourceAlpha" type="matrix" values="0 0 0 0 0 0 0 0 0 0 0 0 0 0 0 0 0 0 127 0" result="hardAlpha"/>
<feOffset dy="4"/>
<feGaussianBlur stdDeviation="2"/>
<feComposite in2="hardAlpha" operator="out"/>
<feColorMatrix type="matrix" values="0 0 0 0 0 0 0 0 0 0 0 0 0 0 0 0 0 0 0.25 0"/>
<feBlend mode="normal" in2="effect2_dropShadow_25_378" result="effect3_dropShadow_25_378"/>
<feColorMatrix in="SourceAlpha" type="matrix" values="0 0 0 0 0 0 0 0 0 0 0 0 0 0 0 0 0 0 127 0" result="hardAlpha"/>
<feOffset dy="4"/>
<feGaussianBlur stdDeviation="2"/>
<feComposite in2="hardAlpha" operator="out"/>
<feColorMatrix type="matrix" values="0 0 0 0 0 0 0 0 0 0 0 0 0 0 0 0 0 0 0.25 0"/>
<feBlend mode="normal" in2="effect3_dropShadow_25_378" result="effect4_dropShadow_25_378"/>
<feBlend mode="normal" in="SourceGraphic" in2="effect4_dropShadow_25_378" result="shape"/>
</filter>
</defs>
</svg>
