<svg width="134" height="134" viewBox="0 0 134 134" fill="none" xmlns="http://www.w3.org/2000/svg">
<g filter="url(#filter0_dd_20_333)">
<mask id="mask0_20_333" style="mask-type:alpha" maskUnits="userSpaceOnUse" x="4" y="0" width="126" height="126">
<path d="M130 63C130 97.7939 101.794 126 67 126C32.2061 126 4 97.7939 4 63C4 28.2061 32.2061 -1.00397e-05 67 -1.00397e-05C101.794 -1.00397e-05 130 28.2061 130 63Z" fill="#D9D9D9"/>
</mask>
<g mask="url(#mask0_20_333)">
<rect width="206.839" height="7.67866" transform="matrix(0.871751 -0.489949 0.608553 0.793513 -76 49.6771)" fill="#272A31" fill-opacity="0.9"/>
<rect width="199.994" height="7.86131" transform="matrix(0.566313 0.82419 -0.823403 0.567456 76.416 -66)" fill="#272A31" fill-opacity="0.9"/>
<rect width="206.839" height="7.67866" transform="matrix(0.871751 -0.489949 0.608553 0.793513 -47.9627 86.2357)" fill="#272A31" fill-opacity="0.9"/>
<rect width="199.994" height="7.86131" transform="matrix(0.566313 0.82419 -0.823403 0.567456 37.5778 -39.2342)" fill="#272A31" fill-opacity="0.9"/>
<rect width="206.839" height="7.67866" transform="matrix(0.871751 -0.489949 0.608553 0.793513 -9.02197 137.012)" fill="#272A31" fill-opacity="0.9"/>
<rect width="199.994" height="7.86131" transform="matrix(0.566313 0.82419 -0.823403 0.567456 -16.3641 -2.05945)" fill="#272A31" fill-opacity="0.9"/>
<rect width="206.839" height="7.67866" transform="matrix(0.871751 -0.489949 0.608553 0.793513 -57.3085 74.0495)" fill="#272A31" fill-opacity="0.9"/>
<rect width="199.994" height="7.86131" transform="matrix(0.566313 0.82419 -0.823403 0.567456 50.5239 -48.156)" fill="#272A31" fill-opacity="0.9"/>
<rect width="206.839" height="7.67866" transform="matrix(0.871751 -0.489949 0.608553 0.793513 -29.2711 110.608)" fill="#272A31" fill-opacity="0.9"/>
<rect width="199.994" height="7.86131" transform="matrix(0.566313 0.82419 -0.823403 0.567456 11.6859 -21.3903)" fill="#272A31" fill-opacity="0.9"/>
<rect width="206.839" height="7.67866" transform="matrix(0.871751 -0.489949 0.608553 0.793513 9.66956 161.384)" fill="#272A31" fill-opacity="0.9"/>
<rect width="199.994" height="7.86131" transform="matrix(0.566313 0.82419 -0.823403 0.567456 -42.2562 15.7844)" fill="#272A31" fill-opacity="0.9"/>
<rect width="206.839" height="7.67866" transform="matrix(0.871751 -0.489949 0.608553 0.793513 -66.654 61.8633)" fill="#EC5242" fill-opacity="0.9"/>
<rect width="199.994" height="7.86131" transform="matrix(0.566313 0.82419 -0.823403 0.567456 63.47 -57.0778)" fill="#EC5242" fill-opacity="0.9"/>
<rect width="206.839" height="7.67866" transform="matrix(0.871751 -0.489949 0.608553 0.793513 -38.6169 98.422)" fill="#EC5242" fill-opacity="0.9"/>
<rect width="199.994" height="7.86131" transform="matrix(0.566313 0.82419 -0.823403 0.567456 24.6318 -30.3123)" fill="#EC5242" fill-opacity="0.9"/>
<rect width="206.839" height="7.67866" transform="matrix(0.871751 -0.489949 0.608553 0.793513 0.323547 149.198)" fill="#EC5242" fill-opacity="0.9"/>
<rect width="199.994" height="7.86131" transform="matrix(0.566313 0.82419 -0.823403 0.567456 -29.3101 6.86224)" fill="#EC5242" fill-opacity="0.9"/>
<rect width="206.839" height="7.67866" transform="matrix(0.871751 -0.489949 0.608553 0.793513 -47.9627 86.2357)" fill="#EC5242" fill-opacity="0.9"/>
<rect width="199.994" height="7.86131" transform="matrix(0.566313 0.82419 -0.823403 0.567456 37.5778 -39.2342)" fill="#EC5242" fill-opacity="0.9"/>
<rect width="206.839" height="7.67866" transform="matrix(0.871751 -0.489949 0.608553 0.793513 -19.9256 122.794)" fill="#EC5242" fill-opacity="0.9"/>
<rect width="199.994" height="7.86131" transform="matrix(0.566313 0.82419 -0.823403 0.567456 -1.26013 -12.4686)" fill="#EC5242" fill-opacity="0.9"/>
<rect width="206.839" height="7.67866" transform="matrix(0.871751 -0.489949 0.608553 0.793513 19.0152 173.57)" fill="#EC5242" fill-opacity="0.9"/>
<rect width="199.994" height="7.86131" transform="matrix(0.566313 0.82419 -0.823403 0.567456 -55.2022 24.7062)" fill="#EC5242" fill-opacity="0.9"/>
</g>
</g>
<defs>
<filter id="filter0_dd_20_333" x="0" y="0" width="134" height="134" filterUnits="userSpaceOnUse" color-interpolation-filters="sRGB">
<feFlood flood-opacity="0" result="BackgroundImageFix"/>
<feColorMatrix in="SourceAlpha" type="matrix" values="0 0 0 0 0 0 0 0 0 0 0 0 0 0 0 0 0 0 127 0" result="hardAlpha"/>
<feOffset dy="4"/>
<feGaussianBlur stdDeviation="2"/>
<feComposite in2="hardAlpha" operator="out"/>
<feColorMatrix type="matrix" values="0 0 0 0 0 0 0 0 0 0 0 0 0 0 0 0 0 0 0.25 0"/>
<feBlend mode="normal" in2="BackgroundImageFix" result="effect1_dropShadow_20_333"/>
<feColorMatrix in="SourceAlpha" type="matrix" values="0 0 0 0 0 0 0 0 0 0 0 0 0 0 0 0 0 0 127 0" result="hardAlpha"/>
<feOffset dy="4"/>
<feGaussianBlur stdDeviation="2"/>
<feComposite in2="hardAlpha" operator="out"/>
<feColorMatrix type="matrix" values="0 0 0 0 0 0 0 0 0 0 0 0 0 0 0 0 0 0 0.25 0"/>
<feBlend mode="normal" in2="effect1_dropShadow_20_333" result="effect2_dropShadow_20_333"/>
<feBlend mode="normal" in="SourceGraphic" in2="effect2_dropShadow_20_333" result="shape"/>
</filter>
</defs>
</svg>
