<svg width="26" height="26" viewBox="0 0 26 26" fill="none" xmlns="http://www.w3.org/2000/svg">
<g id="eva:menu-fill" filter="url(#filter0_ddd_31_3)">
<path id="Vector" d="M21.05 11H4.95C4.42533 11 4 11.4253 4 11.95V12.05C4 12.5747 4.42533 13 4.95 13H21.05C21.5747 13 22 12.5747 22 12.05V11.95C22 11.4253 21.5747 11 21.05 11Z" fill="#272A31"/>
<path id="Vector_2" d="M21.05 16H4.95C4.42533 16 4 16.4253 4 16.95V17.05C4 17.5747 4.42533 18 4.95 18H21.05C21.5747 18 22 17.5747 22 17.05V16.95C22 16.4253 21.5747 16 21.05 16Z" fill="#272A31"/>
<path id="Vector_3" d="M21.05 6H4.95C4.42533 6 4 6.42533 4 6.95V7.05C4 7.57467 4.42533 8 4.95 8H21.05C21.5747 8 22 7.57467 22 7.05V6.95C22 6.42533 21.5747 6 21.05 6Z" fill="#272A31"/>
</g>
<defs>
<filter id="filter0_ddd_31_3" x="-3" y="0" width="32" height="32" filterUnits="userSpaceOnUse" color-interpolation-filters="sRGB">
<feFlood flood-opacity="0" result="BackgroundImageFix"/>
<feColorMatrix in="SourceAlpha" type="matrix" values="0 0 0 0 0 0 0 0 0 0 0 0 0 0 0 0 0 0 127 0" result="hardAlpha"/>
<feOffset dy="4"/>
<feGaussianBlur stdDeviation="2"/>
<feComposite in2="hardAlpha" operator="out"/>
<feColorMatrix type="matrix" values="0 0 0 0 0 0 0 0 0 0 0 0 0 0 0 0 0 0 0.25 0"/>
<feBlend mode="normal" in2="BackgroundImageFix" result="effect1_dropShadow_31_3"/>
<feColorMatrix in="SourceAlpha" type="matrix" values="0 0 0 0 0 0 0 0 0 0 0 0 0 0 0 0 0 0 127 0" result="hardAlpha"/>
<feOffset dy="4"/>
<feGaussianBlur stdDeviation="2"/>
<feComposite in2="hardAlpha" operator="out"/>
<feColorMatrix type="matrix" values="0 0 0 0 0 0 0 0 0 0 0 0 0 0 0 0 0 0 0.25 0"/>
<feBlend mode="normal" in2="effect1_dropShadow_31_3" result="effect2_dropShadow_31_3"/>
<feColorMatrix in="SourceAlpha" type="matrix" values="0 0 0 0 0 0 0 0 0 0 0 0 0 0 0 0 0 0 127 0" result="hardAlpha"/>
<feOffset dy="4"/>
<feGaussianBlur stdDeviation="2"/>
<feComposite in2="hardAlpha" operator="out"/>
<feColorMatrix type="matrix" values="0 0 0 0 0 0 0 0 0 0 0 0 0 0 0 0 0 0 0.25 0"/>
<feBlend mode="normal" in2="effect2_dropShadow_31_3" result="effect3_dropShadow_31_3"/>
<feBlend mode="normal" in="SourceGraphic" in2="effect3_dropShadow_31_3" result="shape"/>
</filter>
</defs>
</svg>
