<svg width="179" height="172" viewBox="0 0 179 172" fill="none" xmlns="http://www.w3.org/2000/svg">
<g id="smash">
<g id="dark">
<path id="d-One" d="M132.629 87.5296C134.437 88.6984 134.462 91.3349 132.676 92.5374L78.4635 129.044C76.4814 130.379 73.8104 128.973 73.788 126.584L73.1118 54.5957C73.0893 52.2062 75.7334 50.7508 77.7403 52.0481L132.629 87.5296Z" fill="#ED5252" fill-opacity="0.9"/>
<path id="d-Two" d="M96.6288 87.5296C98.4369 88.6984 98.4617 91.3349 96.6759 92.5374L42.4636 129.044C40.4814 130.379 37.8105 128.973 37.788 126.584L37.1118 54.5957C37.0894 52.2062 39.7335 50.7508 41.7403 52.0481L96.6288 87.5296Z" fill="#923232" fill-opacity="0.8"/>
</g>
<g id="lite">
<path id="l-one" d="M96.6288 86.5296C98.4369 87.6984 98.4617 90.3349 96.6759 91.5374L42.4636 128.044C40.4814 129.379 37.8105 127.973 37.788 125.584L37.1118 53.5957C37.0894 51.2062 39.7335 49.7508 41.7403 51.0481L96.6288 86.5296Z" fill="#ED9797" fill-opacity="0.8"/>
</g>
</g>
</svg>
